ply
format ascii 1.0
element vertex 520
property float x
property float y
property float z
property uchar red
property uchar green
property uchar blue
end_header
2.250169883057575 0.43990136666500873 6.247889084187093 63 50 76
2.168270298736501 0.6250575308779529 6.2764887141398065 96 94 116
2.313477174747218 0.6696732678453605 6.317373196020056 19 28 57
2.259594034777132 -0.943397422025956 6.104892195611693 117 112 142
2.0989048679505142 -1.042316934148967 5.978812444703293 119 115 138
2.1598371812226804 0.6533003287983762 6.251894315547636 91 92 120
2.059112776460272 0.732816564939118 6.220213514503733 31 28 37
2.37678870125403 0.34800147052804825 6.232807337258667 62 55 71
2.130689766781824 -1.148414686813869 5.985426458631131 93 114 135
2.0394895350518927 0.7538233629918016 6.219531890471616 90 79 96
3.0830144496200846 -0.2537209858395033 6.8586518463882165 48 55 74
3.1773597942989467 -0.6300098910099294 7.035878755809582 134 140 176
1.9952690157047248 -1.0371760613681622 5.912622429681 40 38 49
2.4561359033614982 -0.4005665436875242 6.314483331583262 60 56 73
2.25459035370214 0.47214458051354086 6.254788568930457 61 47 72
-0.20710536288392817 0.22085633108136035 4.60735922722301 12 22 58
2.6489964779229846 -0.1319438941015298 6.366865344434121 137 157 184
2.99559255776112 -0.21467375735437128 6.769650720788987 164 177 212
2.3746173194482907 0.6486826394071653 6.237467767963085 61 56 86
2.494192705793015 0.9008679210924063 6.238174775576604 51 43 58
2.015296102536223 0.3097948269863332 6.239441045653962 53 50 67
2.367345099533787 0.9283244995966836 6.177990140207047 98 88 112
2.459955824845133 0.796059476576678 6.241473949982968 84 72 92
2.0441855062528718 -1.0733328498718624 5.9268373755133705 130 125 148
2.0441855062528718 -1.0733328498718624 5.9268373755133705 130 125 148
2.459955824845133 0.796059476576678 6.241473949982968 84 72 92
2.0084898744799196 -0.551648750706482 6.23092022574218 118 121 152
2.3679767550920725 -0.6887122146483705 6.245035696800662 91 89 113
2.0991254148689547 0.6924892557126521 6.23403414515648 116 129 161
2.4561359033614982 -0.4005665436875242 6.314483331583262 60 56 73
2.067652351881979 -1.5195825479392413 6.012434891628433 148 163 194
2.3679767550920725 -0.6887122146483705 6.245035696800662 91 89 113
1.879663031970569 -1.2059646233753711 5.749959809654435 32 34 46
2.305425888892551 -0.7757433665912024 6.194493379766035 52 45 61
1.2491383853332294 0.6515171824168794 4.932438571087667 174 186 226
2.061844994524468 -1.2090842324909385 5.936535549437934 157 173 199
2.5621700891248094 0.615603093572009 6.328281754035063 97 108 130
1.644687130218397 -1.3291170575352458 5.558270051690306 141 150 191
1.850966252927486 -0.17690201367566696 6.294298442200672 35 31 46
2.333215441677374 -0.7893469239759954 6.182101718858144 103 100 127
2.415445200256253 0.7445474529815563 6.251670201034503 29 26 33
1.2293317647306725 -0.780302990736888 5.046230423828902 165 174 207
2.4747723722261896 -0.38309553103072236 6.293850014750288 35 30 50
2.260356467219751 -0.8925835160475543 6.136405183756377 41 36 58
2.604377570189314 0.7484939202791958 6.375289602901331 38 34 49
3.115296934355492 0.951730741323821 6.8817574606846 242 245 250
2.4125675596924805 -0.24345262655201114 6.274509403435715 109 99 124
2.4125675596924805 -0.24345262655201114 6.274509403435715 109 99 124
2.0959466417413535 -1.2125360470833852 5.947315431713282 55 58 89
0.8455421954670886 0.33516156959432547 4.527819445094458 170 185 218
2.085985561911403 0.9534985548141618 6.138301614065712 50 47 66
3.3244782304181246 -0.8587926734417498 7.215442032535074 164 174 210
2.0991254148689547 0.6924892557126521 6.23403414515648 116 129 161
2.0368555747038197 -1.041614173881968 5.934016756860084 97 93 116
2.5234905100250464 0.5743107269274281 6.372431314977713 60 56 73
2.407721351853389 -0.5637913281733453 6.278952329947003 56 47 68
3.071297245331435 -0.4302378150522621 6.8990530154996295 133 138 180
0.5823663414894584 0.09053069015770678 4.525497279540189 97 101 128
0.6157059210049297 0.30781900337672513 4.480460971682163 62 48 63
3.115296934355492 0.951730741323821 6.8817574606846 242 245 250
1.7469834374547213 -0.2065699918559219 6.18167401940888 123 121 143
0.5778309026468941 0.2750782068403788 4.518934708392157 62 57 80
2.459104355997512 -0.46627866774034754 6.2884425829200925 32 31 47
2.2432168540616613 -0.7807544408854443 6.16142287457082 114 112 134
3.1677258711106346 -0.6758578914973488 7.055471724614555 130 134 171
1.8393724387971144 -1.0718149301033983 5.762406067141013 42 37 44
2.400794730399281 -0.3715249628318574 6.278733545896374 103 100 129
4.1988820437865 1.0194450769554884 8.757427371040277 162 185 216
2.3311533777461575 0.8739956947121498 6.210600037349978 53 39 52
2.459104355997512 -0.46627866774034754 6.2884425829200925 32 31 47
2.2436842122074068 -1.0547894246157714 6.098705370306312 87 84 101
3.1719779883479005 0.8996120185209551 6.967604710392148 130 121 168
2.3305603360924856 0.05972828110325612 6.26491776500367 117 136 168
3.814158795680994 1.030806656572221 7.933231614037701 138 162 186
4.1988820437865 1.0194450769554884 8.757427371040277 162 185 216
1.7955286747531263 -0.18464093226541617 6.243530953212076 41 33 54
2.485785044111928 0.09872275046337974 6.243888012795245 49 43 57
0.28959168308504196 -0.9552742976765746 4.100598399385659 76 61 90
2.2771574982485197 -0.15797842053862518 6.278659718373326 37 35 49
2.0084898744799196 -0.551648750706482 6.23092022574218 118 121 152
2.975680793378661 0.05509663408008212 6.642891148407711 89 96 115
1.047852665377184 0.7593599539143369 4.663629377472333 123 134 156
2.459104355997512 -0.46627866774034754 6.2884425829200925 32 31 47
1.725411417672658 -0.1998971215185202 6.1898977273322995 37 35 49
2.053452899949389 -1.0543183473199813 5.933011398521298 46 39 57
4.217214677134698 1.00638512048305 8.754101755797453 58 69 114
2.1600636724920332 -0.9878183312925931 6.0346062654570884 43 38 60
1.9371719182775038 0.0752791317635124 6.280074721853142 57 48 69
2.400794730399281 -0.3715249628318574 6.278733545896374 103 100 129
2.1600636724920332 -0.9878183312925931 6.0346062654570884 43 38 60
2.487360059883587 -0.020168002026030786 6.244393327461913 84 80 103
0.9628977490450743 0.6867537705427671 4.635829183139204 68 78 103
2.206477793824712 -0.9343406634678693 6.113608067613895 90 88 112
2.061844994524468 -1.2090842324909385 5.936535549437934 157 173 199
2.0302091120157386 0.1808233233750622 6.274137368988285 89 81 104
2.053452899949389 -1.0543183473199813 5.933011398521298 46 39 57
0.6817294700418683 -0.3702626299244814 4.43094819944691 143 143 169
2.2436842122074068 -1.0547894246157714 6.098705370306312 87 84 101
2.517718610559676 0.7489195482699295 6.287171960135679 22 21 35
2.138155719457796 0.7412087025832284 6.235741679091635 36 25 42
2.082660508227325 -1.5595670571040208 6.02976241446827 146 155 184
2.28586417143167 0.2353839689483141 6.302899111401833 90 86 111
1.9666171478966958 0.6606981045544875 6.245825264259085 110 105 135
0.6676256815979245 0.0658212318733101 4.447964584368865 80 78 92
1.7649713401365383 -0.19132200539093433 6.220886261530341 45 41 58
2.487360059883587 -0.020168002026030786 6.244393327461913 84 80 103
0.8913335504394468 -0.6839694137515229 4.680990976699217 138 145 187
3.877681586843901 0.3365090161324196 8.03259658701799 42 39 58
2.245863599625094 0.2616778902134708 6.25204433164156 66 57 84
2.1656883033352683 0.7554952737141333 6.2244693760833725 83 72 86
2.428911869495596 0.18770277595885868 6.265007047383254 104 100 125
2.0315123299777893 0.25185599671066167 6.273386789171098 114 112 134
2.1001808868462053 -0.05481418980320951 6.2456881796760335 102 98 125
0.7174462248680087 0.2397304238809503 4.400001298893913 122 113 132
3.1375905430335584 0.8623611630077525 6.915313770343685 106 98 145
1.9666171478966958 0.6606981045544875 6.245825264259085 110 105 135
2.260356467219751 -0.8925835160475543 6.136405183756377 41 36 58
2.5103591149244044 0.9572806302659851 6.1769355578278144 113 124 146
2.239554230992257 -0.6577555112254783 6.2337010477649475 112 119 147
2.446402911087312 -0.5509825549801836 6.300324897857865 38 33 55
2.407721351853389 -0.5637913281733453 6.278952329947003 56 47 68
0.5319977918194182 -0.7675168700479272 4.326537860543239 128 129 157
3.0089925570488663 0.057773579960225446 6.671551208292539 33 30 47
2.2125343810708995 -0.9442350401440827 6.090470876166236 42 37 59
2.428911869495596 0.18770277595885868 6.265007047383254 104 100 125
3.095594629551576 -0.08468416580893774 6.820459128281102 113 125 147
2.3305603360924856 0.05972828110325612 6.26491776500367 117 136 168
0.9086299771603551 0.5700267170403415 4.576988217855217 66 81 120
0.7207444260729311 -0.7155232591220179 4.4973697225572575 187 193 229
2.914551482042602 -0.08694808880095052 6.62514084587658 177 189 229
-0.7403383862657732 0.3391723647852792 3.7180343247594005 144 167 211
2.239554230992257 -0.6577555112254783 6.2337010477649475 112 119 147
2.9342605347463624 -1.4830272661154367 6.9209945735234415 193 206 240
1.5420833720277924 -1.1936719343154 5.416331883315963 86 100 126
0.9209296064365412 0.5602992966794198 4.586821117493324 236 242 254
1.8897476468270686 -0.32726445643517144 6.305843984083077 51 45 59
1.8257692831253116 -0.18164141332659983 6.282318741901762 40 33 49
1.9646314851099502 0.7191808179615271 6.243175037635855 90 86 119
2.303298543936102 -0.8356022388046312 6.177482696505387 38 33 55
0.9692304448293566 0.6715214728332635 4.625420876990071 177 191 230
1.9240705288061 -1.0782333414154328 5.82164132818715 105 91 114
1.8906666565567087 -1.0625079554442574 5.804089624037985 36 33 44
0.7773709576678289 0.9422149964931797 4.3378011357079265 116 124 145
2.2432168540616613 -0.7807544408854443 6.16142287457082 114 112 134
3.1058565628869403 0.8788467673577269 6.873000989912678 243 248 252
0.5120668255464401 -0.4739868195119125 4.528572927237984 45 35 46
2.2215163421407937 0.7384340962699443 6.248542712882198 45 35 46
0.9209296064365412 0.5602992966794198 4.586821117493324 236 242 254
2.1690760986647 0.029361667800695608 6.280011476507801 25 25 37
2.3538070749428828 -0.7199769235585742 6.178972603070972 103 98 121
2.109716927149878 -0.9362644352094117 6.051407606574184 106 103 130
1.4348806119952535 -1.1292886191083864 5.313577105236929 181 190 231
1.9595805322621116 -0.9511545962843811 5.982216706840247 101 97 124
2.214527159690684 -0.06318089449185761 6.2329852222140465 103 103 131
1.9595805322621116 -0.9511545962843811 5.982216706840247 101 97 124
2.5621700891248094 0.615603093572009 6.328281754035063 97 108 130
1.494758711957502 -1.1898949899644176 5.3653235989989225 167 174 216
1.047852665377184 0.7593599539143369 4.663629377472333 123 134 156
2.0923060091480967 -0.7645087066512066 6.149952019748611 30 29 37
1.2263696337715095 0.02884384640699087 4.945538598179796 41 48 67
2.498517792599601 0.2057664937965519 6.1658712662158575 53 53 79
3.0992890340874117 0.9120941757453338 6.871512754044207 114 122 169
2.01488428739992 1.0844451986678287 5.146710912166844 75 85 120
1.267412413015343 0.6100895505071618 4.935389995393318 130 108 129
1.7739375459188753 -1.0387488843985613 5.7193320775748395 130 116 142
1.923310851005538 -1.4868016223793417 5.8168905310014285 144 164 188
4.054899973733401 1.1735698125981846 8.518201607674309 68 87 120
2.3903457258555556 -0.7478647669237489 6.218085363133798 114 103 133
1.8088050651709835 -1.0820000079017922 5.707715286883313 126 123 142
2.3885587472341854 -0.03739879783376262 6.279723038643487 52 50 63
0.7089780648299318 0.8687130893956189 4.283488454478145 66 63 80
2.3611570080069693 0.5473757080460705 6.201813176429544 60 56 81
1.8254515050317992 -1.3155905907637657 5.709707398297147 149 171 194
2.236269906628151 -0.9810830309113189 6.112781244538755 73 66 99
1.636034634397666 -0.8508635338434862 5.755132238348072 136 128 151
2.4455514083764704 0.7138624875964066 6.245103931012099 77 83 109
1.1147219062716105 -0.9335890247231745 4.941607519613646 125 134 177
1.7649713401365383 -0.19132200539093433 6.220886261530341 45 41 58
2.569045664010365 1.044909144621597 6.208943832505802 77 63 96
0.4191572199640604 -0.9353506099507898 4.220841189105657 27 27 29
2.5774924975165225 1.073506156221969 6.135983862428021 41 50 89
0.8525885850748347 0.08233800833559378 4.5587119513315715 174 178 215
1.4571814260264266 -1.1232371748797814 5.317874768854197 72 85 117
2.3963496713188523 -0.10656107135883282 6.164318944269257 133 130 149
1.952322311219746 0.7492862529181462 6.213427638887965 105 101 124
1.68974863671112 -1.2133543609901007 5.521832904113499 64 75 105
0.40776076050154025 -0.9050890053624102 4.217696563727037 68 54 79
1.7084978252740037 -1.123628186027749 5.577395449231203 72 63 94
1.1801392401992643 0.04605337162745239 4.937572410307681 174 178 216
2.0650445180520594 -1.3387859369418986 5.981391041487378 130 141 171
0.698022482374744 0.40775081182477313 4.3887641522338345 53 51 65
3.071297245331435 -0.4302378150522621 6.8990530154996295 133 138 180
2.1137375427442406 -1.1735531151893923 5.964521822410869 103 123 150
1.6463643410310962 0.38713990468280385 6.038413705564814 71 106 125
3.2655757132553083 1.1039389519407012 7.0664337856141275 87 94 112
2.2089635362992737 -0.9634304857726144 6.080188192105799 117 112 134
1.6560958006324635 -1.0839313703383442 5.518936755405478 133 130 157
1.670886841551603 -0.20346053149969995 6.1263851387770485 42 38 55
0.8326304278384008 0.1139083037558027 4.552257287810852 130 121 142
1.5866049510899012 -1.0233064557487055 5.459178044757507 79 69 104
1.7391026981415036 -0.4899585968733246 6.207183123251615 31 28 45
0.935133885721877 0.5753229259175499 4.600764761220342 63 77 124
2.4338575510841167 0.2578959840937891 6.267002764327044 90 82 106
2.1701717504757587 -0.7310025915992715 6.121274948849946 107 108 139
2.250592803133766 0.21119717331005397 6.271272456447851 64 50 76
0.7285112179984085 0.8397849457301391 4.300297216992228 53 54 74
1.8679511660190822 -1.111649522905407 5.7591574468392635 106 106 132
0.8815331337338655 0.9572015428990671 4.450489586077526 104 112 133
1.7739375459188753 -1.0387488843985613 5.7193320775748395 130 116 142
2.502162714341573 0.6809435323812592 6.25750582523974 39 40 58
0.714128682436869 -0.3667312208709664 4.470689346471267 121 115 141
1.2036010598049975 -0.12647197589864323 5.018694418675969 166 173 215
1.3852667583202367 1.068512646385284 4.39493542164332 40 57 67
1.8158607054890288 1.015800910917648 5.116063986695968 94 104 140
1.6463643410310962 0.38713990468280385 6.038413705564814 71 106 125
0.5870691534867603 -0.39945534370278774 4.471797537316322 82 80 102
-0.7428057170461925 0.32329016751603773 3.728487838857813 147 175 215
1.495475529046805 -1.1802767366101505 5.378624462424262 165 179 216
1.7673558471584787 -0.27511364328769494 6.216053813109507 132 127 147
0.829347081878037 0.967326328246984 4.398680421196199 43 48 70
0.544264914919785 0.9286132255778404 4.4185507599995075 31 30 44
1.700270407376287 1.0088818696802933 4.995338037360796 75 84 117
3.1367230385308726 0.6328843264865684 6.940504544790234 133 124 153
1.3060826356566488 -0.940561544839548 5.140253970568222 111 112 158
2.1818769085924057 -1.1003199435431308 6.012262545889388 39 38 52
2.5017985892492605 0.4494113491851531 6.292271103497875 95 91 114
1.8076117133317418 -1.1043939169364894 5.691911382963393 111 103 127
-1.0184509157144048 -0.5665010549943198 3.590508693916451 122 134 172
3.7617016994609513 1.006528081035304 7.87862197559271 147 174 203
0.8496294265309694 0.04478860227328149 4.549676045404039 175 188 223
2.0819090612069933 -1.582167674614686 6.023151094508227 151 160 189
1.1147219062716105 -0.9335890247231745 4.941607519613646 125 134 177
2.437171793289646 -0.45359044288423095 6.274045125850023 95 92 119
1.9325050260635457 -0.6598452327446415 6.169039294788601 106 101 131
1.7909400101789994 -0.3836796664369536 6.270831723112945 42 38 55
0.8371191158566991 0.959900129061978 4.399812404845377 92 104 130
0.5870691534867603 -0.39945534370278774 4.471797537316322 82 80 102
2.580409791580268 1.0254770071114379 6.237516168176322 77 71 105
1.3164977847336476 0.9447168404290023 4.91141205801936 57 58 89
0.2640406541654836 -0.9601026757464447 4.077510189474218 70 58 82
0.7606003064851822 0.9349687296436379 4.318701599697011 64 66 91
-0.11247255067219451 0.8388382233156245 3.416409267443886 168 160 181
0.056196561554366836 -0.9046471181435628 3.851860983814384 80 64 93
2.574326924821232 0.9466460829913752 6.2790397042089205 63 61 83
1.824429182735716 -1.0966440332589433 5.691934759845192 37 35 49
1.1506330044017445 0.7461213334688823 4.817542066354392 68 72 75
0.9303000527820086 0.7434039117795324 4.538741428240344 134 142 161
0.7537096861524257 0.9404096399801617 4.313431005070045 157 164 183
1.9789758997345401 0.2444330874288258 6.295173816047136 106 101 124
1.7103018047831362 -1.1869237835156725 5.568412559795114 83 94 114
1.8149681735081256 -1.3025798572514948 5.71189487991012 34 34 58
-0.6561118335289632 -0.1807830036650155 3.9365985959694516 139 150 178
0.7315235689303573 0.8614843684434135 4.301402902111894 126 130 157
1.3627813720206212 0.9865795253710182 4.797079465865181 38 45 61
0.41434408329030215 -0.8990158563652313 4.21669925751255 77 64 90
0.7040341664107428 -0.3785840782782577 4.455733575700629 138 133 156
-0.25355225744089915 -0.3486019709917002 3.4370900299826386 50 39 53
1.308530092979556 0.5621019237161116 4.992651979437736 35 33 46
3.900645308775306 0.15005192553837546 8.180472282413584 84 82 104
1.2525997659904258 0.6871829351265639 4.936147447356746 175 188 223
0.7308787115606443 0.13977419549931094 4.438340557991476 147 149 174
1.5502309953701883 -1.0238497245957963 5.399917832274181 77 61 97
2.486061816833451 -0.3028125244686457 6.29824131743798 38 34 51
0.6664963280512208 -1.1131187541850742 4.505197815861627 114 116 155
1.597828235133674 -1.0093354350957817 5.467479507225438 128 124 147
3.1415007607123715 -0.4529956128516554 6.988546757590347 180 194 229
1.5866049510899012 -1.0233064557487055 5.459178044757507 79 69 104
0.6664963280512208 -1.1131187541850742 4.505197815861627 114 116 155
1.2945702590917054 -0.9294594350239161 5.126305228465571 194 203 242
0.238933552870748 -0.961260732845042 4.048027788482977 66 50 77
3.0751564532520907 -0.19486979883517688 6.956029565334733 160 168 205
2.464898600137838 1.0234930062669652 6.101192069241522 136 150 187
1.8076117133317418 -1.1043939169364894 5.691911382963393 111 103 127
1.9409819097388976 0.36770536694361655 6.2639498694022935 59 47 71
2.5867705954361266 0.34384634079168913 6.323624863210594 127 122 144
2.32679184485371 0.9499264044462126 6.19101100625251 53 49 63
2.3020517549711954 0.6914145322846759 6.2408676339522176 30 25 45
1.7822378124112992 -0.4446544901447251 6.274076270987148 40 38 51
1.7199407256031365 -0.8680251365601175 5.842070266726238 116 114 135
-0.7041629674526119 0.7215287200069559 3.6533740631046525 23 22 36
1.9288425404888705 -1.451883178489812 5.832087618084001 97 99 138
1.9983347113172276 -1.5293988210806004 5.947031522587768 189 200 230
1.7886164668134592 -0.2011528743978696 6.215775394302105 55 49 75
1.9284336026633697 -0.265803284752381 6.296436728736359 53 45 69
2.971760351375695 0.016210979699871605 6.626671050864056 78 95 115
2.222669634879335 0.8914832438604791 6.123715487708849 98 98 122
1.6460012210933699 -0.9754873749447419 5.6052232684443 38 33 53
2.0901193395463706 -1.0116012852535365 5.985538096516157 95 93 117
2.4373027114252377 -0.5371586100540783 6.313615662662041 97 94 121
-0.14001868071271664 -0.5145496161885573 3.599691291540522 179 181 204
2.376697890484689 -0.09126188362002322 6.2080703026849555 29 27 38
0.6233968540280946 -0.4224796482980014 4.428177489715167 45 45 57
3.7800896578185177 -1.9242400606963812 7.960418667953491 150 155 187
3.807378417776419 0.012063919022956499 7.972529740952691 52 50 64
2.58200957470299 1.0787745251640801 6.101983922561513 131 146 185
0.30348825819426534 0.6707947963669953 4.773546524139857 82 88 114
2.497710686833024 -0.2815263510502976 6.289591165352496 108 103 126
2.2641685641154394 1.1567422066283242 5.258049886306455 81 94 126
2.98898861112843 -0.4926702248982049 6.826831572864151 144 146 187
4.019062565745156 0.0319989350072301 8.483440551483843 122 129 155
2.456868437705881 1.101982614210132 5.774403013774581 97 111 140
-0.1051435811986092 -0.6797154011852403 3.6558898287958175 158 143 166
1.9103464720238608 -1.353163573703641 5.800950369982925 101 114 146
-0.09921599493557244 -0.6970732389518858 3.6671504018534042 157 139 161
-0.732981718874832 0.02035964304757214 3.7720673097029724 96 112 146
2.734302545863756 1.1669824144031877 6.058270397864659 135 147 187
-0.25958365784051973 -0.2535251649998963 3.442668471162226 133 125 146
0.8754810530619332 0.9643202715119229 4.4461867143159814 40 45 67
2.3498235167994643 -0.7737831470691909 6.225104210306743 36 31 54
2.2007346625231095 0.6531904304846707 6.163252215315292 26 35 66
0.4685542858984942 0.8912379629432682 4.496015012503685 34 32 46
2.4239390793159648 0.11868520418233679 6.259789473837561 111 101 125
3.2596692738318365 -1.3587933798650011 7.2300266705484635 142 143 173
1.3418711192380035 0.7714160626610069 4.98424684335454 67 60 78
0.7203398305682619 0.9637579327004828 4.275257973043966 154 145 164
1.6625665075778107 -0.21980266952898603 6.090377114344777 59 50 79
2.255763151154995 0.687936891823116 6.245504070246465 59 45 70
1.7521135131844712 -1.1998004010615428 5.597937816410598 94 114 139
0.9475271910860134 1.0514046108426702 4.499986821854309 67 69 90
3.4588746259082694 -0.525665598337385 7.232671433314298 123 116 134
1.2991535180698779 -0.7876290237952375 5.080552628220912 89 95 127
1.6324478382755656 -0.22345054975913772 6.0534407503543814 59 50 79
0.7563530271369268 1.0190128374150726 4.309731561337745 42 43 63
2.412476782080185 -0.6304487415242221 6.267937436404789 39 36 53
3.8197122435026745 1.0111900709040698 8.147974652160197 87 99 121
1.273775498090941 -0.4823891174220472 5.006402705291319 72 75 110
1.6961407237473192 -0.8595867327634764 5.82447557896147 113 109 126
0.7462880396359656 0.9442136653138604 4.305856439003918 77 75 99
1.8597433338524683 -0.7125406980891905 6.069604321372327 118 122 151
2.8456431875804804 0.9211233789761243 6.486090858846451 164 175 205
3.828989532058337 0.21069920608832024 8.062018327525012 121 135 164
3.1469251196289973 -1.8659965236620442 7.2171449049902225 159 150 181
1.2572602387462373 -0.48736353860201037 4.984145876848391 129 131 156
3.090362672139097 -1.5720474719335307 7.058126500840153 150 141 172
1.7194541622183608 -1.0776110781191153 5.592966404046246 32 30 44
1.9348168770464447 -0.21381014342695662 6.302686927269062 51 43 66
1.822434093088381 -1.2421626833160493 5.68273429899648 79 95 129
0.7302450358685614 0.8741308149987933 4.296121562554657 72 74 97
2.552178405658814 1.1191485673603314 5.879996999227318 97 108 140
1.5502309953701883 -1.0238497245957963 5.399917832274181 77 61 97
0.43459923381927373 -0.9186304031782835 4.226326024871889 136 137 157
0.7655397519622209 0.8860541436182432 4.331495794079882 119 130 148
1.535283542273539 -0.9771344870789131 5.392930884846498 79 64 97
0.4191572199640604 -0.9353506099507898 4.220841189105657 27 27 29
0.5732498878496783 0.3171915085924471 4.490742915072124 103 110 136
0.7256323691039391 0.8226795833299771 4.29698820528076 103 108 130
0.6192745433657112 1.0204264683055169 4.15012559134454 35 66 34
0.7250416795267486 0.8802891997157424 4.289321170497239 126 125 139
2.4920454332220907 1.1503357593963606 5.660914048329524 92 103 135
-0.7563294111827312 0.7424977649107845 3.6472050784507197 17 21 32
3.75561819900619 1.0337414120765538 7.924825442169472 68 89 116
2.2885403982887182 -0.8191789600252871 6.170998307132301 98 102 127
-1.059440681336998 0.3327265598061394 3.3116361594898027 84 109 150
0.7462880396359656 0.9442136653138604 4.305856439003918 77 75 99
-0.1321501392393206 -0.5713473688622858 3.6205730458314305 167 149 171
1.9284336026633697 -0.265803284752381 6.296436728736359 53 45 69
2.084929090081946 -1.493566839387981 6.056400886206288 152 157 187
2.2885403982887182 -0.8191789600252871 6.170998307132301 98 102 127
2.374151107218704 -0.6993335462541961 6.221651006551513 38 33 55
2.6164299986850965 1.0768068065914937 6.256081798659138 77 74 101
-0.12700899128277454 -0.39519860419282493 3.6042819865043656 166 157 176
2.5292642370651808 0.6013306530041352 6.29764592337074 47 50 69
1.691851036585036 -1.0711575136756846 5.562536386525244 121 111 136
2.617679101989248 1.0824155778262479 6.269486501873807 122 120 142
0.8523108060142006 -0.2390897719586491 4.564985344750991 49 55 71
1.852685610967538 -0.25345740242319575 6.3280382168727805 117 106 138
-0.2695537340088448 0.45758228873957146 3.3600382636031187 104 101 118
1.0681366146284703 1.003270380022557 4.6419745831635915 125 131 157
1.7194541622183608 -1.0776110781191153 5.592966404046246 32 30 44
0.01683779100005967 -0.0054724531316298125 4.785957184268618 20 19 24
2.528161598310959 1.0774222025333613 6.085012352667591 140 155 198
1.5332635750804022 -1.2126523911831806 5.415237272492057 179 189 224
0.7563530271369268 1.0190128374150726 4.309731561337745 42 43 63
0.7655397519622209 0.8860541436182432 4.331495794079882 119 130 148
2.486061816833451 -0.3028125244686457 6.29824131743798 38 34 51
3.822204903821495 1.123532907355975 8.080437405635493 26 38 60
-0.18709178733732396 0.397225046935393 3.519606545674398 37 43 65
2.021665511707876 1.1543022122309683 4.965628302476304 121 127 159
1.5359865437858566 -0.8862587059688114 5.477099358339892 109 104 136
2.2007346625231095 0.6531904304846707 6.163252215315292 26 35 66
1.0159596821795427 0.8827870583767058 4.603539047021771 39 44 64
2.239984639665596 -0.876378646770478 6.118347285216891 88 86 108
0.7241696474528232 1.0340949847494725 4.25836011683663 70 90 81
0.700302885198939 0.25603137794431696 4.407681604060406 47 44 55
1.535283542273539 -0.9771344870789131 5.392930884846498 79 64 97
3.421853683091518 -1.4977891096484581 7.586608983739055 147 147 175
0.16666261140630256 -0.9546329856342824 3.9732044318077477 65 42 70
1.4511798531728777 0.5740914306065665 4.984081767861464 98 127 169
0.7433768505224098 0.8798651341422897 4.30773646408575 131 133 156
1.9331261073274928 -1.0886429412757426 5.7990714971294475 40 35 55
0.7527333010960522 0.8453748803069362 4.3262883286163145 65 66 87
1.9966013278316128 0.7407238944775868 6.264084953646105 35 27 40
-0.40746016391372425 -0.626271616680262 3.6252512099071788 93 91 113
1.6229264343177725 -0.8556541947723393 5.72646712615046 85 78 111
1.2634579499816612 -0.5185936639198265 4.9934635968920285 125 122 149
0.935133885721877 0.5753229259175499 4.600764761220342 63 77 124
1.8018944537016925 -1.3633492007245485 5.712287917539126 52 58 84
-0.7816079190252058 0.5795024921047588 3.6765983209146986 39 42 49
-0.26677511213357974 0.8164044801951295 3.249739753995259 137 135 149
0.6943988676294426 -0.32490757246875274 4.440911766154607 66 51 80
1.852685610967538 -0.25345740242319575 6.3280382168727805 117 106 138
-0.13077131431014904 -0.23609531571273745 3.586432729041116 125 121 144
1.2693987395886832 -1.0270292993253523 5.115281145944374 134 141 185
1.097779353822808 -0.082096876682134 4.830870951934146 142 144 182
3.1388458064956026 -1.2993962217832116 7.095885710979282 58 55 82
-0.17165466928280101 -0.34110157663196244 3.5344966819099604 31 32 37
2.6767709232409733 -0.17102830685925244 6.43065388921363 84 96 120
1.7822163606939492 -1.461909347495262 5.716318738293224 150 164 193
1.9898783202668098 -1.1881597714841703 5.865059468247425 34 34 46
0.8964969925475782 0.6223870908187192 4.5584233998251324 63 60 105
1.763680294639123 -1.0841457177192004 5.615920419635074 30 29 45
0.6047424192783071 0.6494920426236795 4.323359431520072 62 84 133
1.615604260851151 -0.8361037389921541 5.747188846647736 136 128 151
1.9600962859765214 1.0420831943694084 5.2694641321689595 93 101 137
2.7378326598941296 1.252164240902971 5.7464196353280705 129 161 148
1.7401266474657948 -0.2830640940288366 6.188876837827157 120 109 139
1.639484600479974 -1.0414761112655828 5.502229780210731 122 122 146
-0.19654276988695496 -0.3409806202261021 3.499918275229002 38 35 42
1.1236888065217039 -1.2813750554013106 4.998310108265787 148 154 188
-0.7399533502171215 -0.019333477286053478 3.769904881027678 200 219 251
2.8547811344547114 0.9721576941698422 6.462864184731246 27 35 71
3.2941767837700695 1.0624762223706687 7.000598552190743 125 143 165
0.056196561554366836 -0.9046471181435628 3.851860983814384 80 64 93
2.3925001953721474 -0.6112121102298026 6.2497399508773 97 103 127
1.3557195181629147 -1.007397880008036 5.2016062764641475 75 86 118
2.758369270474617 1.1437053509142323 6.29103909600543 70 79 110
1.9292597180274746 -1.108463327543575 5.8230739044482025 117 112 142
0.6192745433657112 1.0204264683055169 4.15012559134454 35 66 34
0.9847566488583626 0.9626996360414063 3.5773871587238233 144 147 188
3.497125360673926 -1.4131831138475854 7.566641113956604 69 75 111
1.5986223644296649 -1.065002666896264 5.450516524174236 79 62 94
0.8024325614453968 0.16738946129543922 4.529819581059193 120 115 138
1.376654490478712 -0.9736084031367584 5.207351570049366 53 60 79
2.9199106763077296 0.24435732553370507 6.482562606438864 83 96 115
-0.1361854178743138 0.8134970399560526 3.3997600245614246 42 55 87
1.2426783284807754 -0.15590324850157883 4.954899374515971 94 98 125
-0.9464473122610351 0.32514428190465455 3.3983607136258147 207 220 255
-0.6140072386069532 -0.321273894132837 3.9885247957630265 111 111 135
1.7829382741641258 1.0848742962118012 4.912829490542864 77 87 122
1.287014756564765 0.9731402892633294 4.8690765653218335 41 43 68
1.4364446687227561 0.5878805903226908 4.953534270244264 24 37 72
-0.7399533502171215 -0.019333477286053478 3.769904881027678 200 219 251
0.14362822876691597 -0.9477021224232614 3.945943060019763 62 48 74
0.7904312355427622 1.039461376146771 4.347445177503251 57 53 80
1.0443738578028825 1.0340073106437857 4.607233228584752 59 58 90
2.092883443025221 -1.3506119307768347 6.035041483328227 139 149 176
0.9494901423158076 0.6109619320279795 4.600123884739783 146 150 187
2.123612718846233 -1.0660471478206708 5.996797805371814 67 58 89
3.134040649345272 1.0930215008181696 6.806605369511095 113 121 140
1.6536075697827775 -1.1843375130194609 5.475905166595711 118 123 145
-0.9505158021045179 0.39581180439557945 3.3937773714506756 215 226 255
1.211290271753807 0.7943537780975053 4.743196459127402 25 30 60
2.6195988860353103 1.0937534284323325 6.2852788360118295 65 64 96
1.9909725513070344 1.0395080103396097 5.4362236526335534 81 91 118
4.1988820437865 1.0194450769554884 8.757427371040277 162 185 216
0.6047424192783071 0.6494920426236795 4.323359431520072 62 84 133
2.6840283121685142 0.8561718669292671 6.548663302824234 130 115 136
1.1726734806767825 0.7397871053659854 4.7043855123738325 25 33 54
2.448672467420669 0.05953957131518638 6.130970837868994 109 96 124
0.684972359821194 -0.8847677720957884 4.496419601906809 134 140 176
1.7099887259048554 -0.47343555044339575 6.188805175327476 115 115 141
-0.7340429635555489 0.4486721053655098 3.7150575913623833 101 117 151
1.6365481124932415 -1.1623601722592187 5.473239017865805 43 51 72
1.1440993730476554 1.090365626145613 4.632401471509974 35 54 48
1.3741772938631014 -0.8053250942278504 5.154276763807753 131 120 152
0.6941460164527887 -0.2565132166125436 4.432350038668977 56 48 72
3.19701688333871 1.2440674014815436 6.859884622205868 66 71 91
-0.278781563929194 0.9011554646967632 3.226130987831816 126 122 157
1.6300842228502177 0.9895586642543474 5.062358444420124 86 92 126
0.7192513188872857 0.7140088231254826 4.321974118320426 121 128 112
2.6219131226945693 0.9135263173844764 6.317112482791492 171 177 209
1.870631284299054 -1.1132541138682945 5.767101910358707 106 106 132
1.0732852451096564 -0.9784477466513853 4.915051134092821 139 141 180
1.3536481041734396 0.5929276584099483 5.057583368120631 161 163 186
1.6300842228502177 0.9895586642543474 5.062358444420124 86 92 126
1.60562200444827 1.0423132068084147 4.099708111562888 68 72 107
1.2043439563673657 1.0021667290422098 3.869967386172634 142 142 180
0.323279546283805 0.9804270953677017 3.9076677527409336 136 149 184
3.8529636872074025 1.0183381893107153 8.060111530661459 144 168 202
0.7259901534962272 0.9984971503863572 4.289106351661471 133 126 144
1.4454570559958262 0.9170273697637036 4.92914665056752 115 130 159
-0.3097690125744033 -0.35233795302010396 3.4582503487727845 74 68 80
1.3010578037797271 1.008879556621281 3.881889591839613 79 75 108
1.1808681969760983 0.7297122232810385 4.700170629240956 107 135 174
1.4199946782308595 1.072522154313193 4.378301460987895 109 113 142
0.14362822876691597 -0.9477021224232614 3.945943060019763 62 48 74
1.6061006695263678 -1.3565216099343493 5.512498268766355 120 128 174
1.9260047263823528 -1.538470800831765 5.832342886881586 87 102 135
1.6134677061950806 -1.0225234490142447 5.467895327022198 36 31 51
0.33706123664563126 0.9908519528860074 3.9162799537471225 78 88 100
3.497125360673926 -1.4131831138475854 7.566641113956604 69 75 111
-0.40221502163074946 -0.3404060786038693 3.5441415029157697 65 63 76
3.194461920029851 1.2739913365410447 6.847791685886517 133 150 166
0.3908124268339488 0.9911184804492063 3.9780482140428197 159 170 200
1.5016205492440193 -0.9756309849726474 5.339024658828823 82 68 103
1.0440148465095127 1.0695487185578578 4.426462625940978 89 86 105
1.312333777721287 0.2741504677248282 5.035529359920266 82 66 95
1.580453545600341 1.0918449898992142 4.53769424406786 75 81 105
1.0443738578028825 1.0340073106437857 4.607233228584752 59 58 90
-0.34705307562938764 -0.3308979653651415 3.5090044012036805 75 70 90
1.6687569146011902 -0.3952877140416889 6.125552809089352 110 105 135
4.119906220234372 1.169011729403504 8.52479602766349 88 95 139
-0.7807862865052752 0.4516646315421567 3.7202667970752747 35 39 64
1.1726734806767825 0.7397871053659854 4.7043855123738325 25 33 54
1.480412653995122 1.0789917816896604 4.43678762765719 61 82 83
0.5274533392391518 1.004487892195042 3.9778520028183255 47 75 52
-0.21673488881849812 0.4681235329626933 3.3932638207597376 47 51 60
1.6687569146011902 -0.3952877140416889 6.125552809089352 110 105 135
0.9176166604427121 0.53844783622416 4.583073763071309 244 244 252
0.7690180919163515 0.9412182237926453 3.3985111522497307 66 72 94
1.4459104802178928 1.035667394755839 4.099958429221818 68 87 81
-0.9505158021045179 0.39581180439557945 3.3937773714506756 215 226 255
0.04593496389158476 0.948255560314259 3.6199691906105445 155 169 196
1.7104493287476619 -1.2106451551475426 5.5421825116566374 143 152 181
3.194461920029851 1.2739913365410447 6.847791685886517 133 150 166
-0.9271541308863607 0.42693700967876225 3.4275032750814174 138 160 210
1.2198538946218935 0.7044922408129249 4.730922757386035 97 121 165
0.7812526799659044 1.0398507884191692 4.217056976770427 140 138 177
1.3834310171967563 -0.7066957140487933 5.216266547115307 76 62 95
-0.25226256436247624 -0.38111757646274896 3.410180605918462 88 92 101
